<?xml version="1.0" standalone="no"?>
<!DOCTYPE svg PUBLIC "-//W3C//DTD SVG 20010904//EN"
 "http://www.w3.org/TR/2001/REC-SVG-20010904/DTD/svg10.dtd">
<svg version="1.0" xmlns="http://www.w3.org/2000/svg"
 width="512.000000pt" height="512.000000pt" viewBox="0 0 512.000000 512.000000"
 preserveAspectRatio="xMidYMid meet">
<metadata>
Created by potrace 1.11, written by Peter Selinger 2001-2013
</metadata>
<g transform="translate(0.000000,512.000000) scale(0.100000,-0.100000)"
fill="#000000" stroke="none">
<path d="M2498 5115 c-2 -2 -42 -7 -88 -10 -47 -2 -94 -7 -105 -9 -11 -2 -42
-7 -70 -11 -59 -10 -46 -7 -120 -29 -33 -10 -67 -20 -75 -21 -8 -2 -16 -4 -17
-5 -2 -2 -6 -3 -10 -4 -5 -1 -23 -10 -40 -19 -18 -10 -36 -17 -40 -17 -19 0
-43 -12 -43 -22 0 -6 -3 -8 -6 -5 -6 6 -37 -9 -147 -72 -21 -12 -44 -26 -50
-31 -7 -6 -41 -31 -77 -57 -84 -62 -117 -90 -214 -189 -93 -94 -136 -143 -136
-154 0 -5 -4 -10 -8 -12 -5 -1 -31 -34 -60 -73 -28 -38 -55 -74 -60 -80 -20
-25 -112 -184 -112 -194 0 -6 -5 -11 -11 -11 -5 0 -8 -4 -5 -9 4 -5 2 -11 -3
-13 -7 -2 -89 -168 -121 -243 -5 -11 -20 -47 -35 -80 -15 -33 -28 -67 -30 -75
-2 -8 -17 -53 -34 -100 -28 -80 -77 -238 -86 -277 -2 -10 -11 -45 -20 -78 -16
-57 -58 -247 -69 -310 -3 -16 -8 -39 -10 -50 -2 -11 -6 -42 -10 -70 l-6 -50
16 40 c58 145 87 222 87 233 0 6 4 12 9 12 4 0 8 6 8 12 0 18 159 339 176 356
8 7 14 17 14 22 0 12 110 185 121 188 5 2 9 8 9 14 0 12 117 168 139 185 9 7
13 13 9 13 -6 0 2 9 118 131 76 79 169 162 254 225 36 27 71 54 78 61 7 7 20
13 28 13 8 0 14 4 14 9 0 5 14 14 30 21 17 7 30 15 30 19 0 8 62 36 73 33 4
-1 7 2 7 7 0 5 14 14 31 21 17 7 37 19 45 27 8 8 14 10 14 4 0 -6 14 -2 32 9
17 10 35 17 40 14 4 -3 8 -1 8 4 0 7 44 25 90 37 19 5 98 28 110 33 23 8 35
10 165 33 64 11 360 15 410 5 30 -6 72 -14 130 -23 37 -6 46 -8 65 -15 41 -15
102 -31 115 -31 8 0 15 -4 15 -9 0 -4 9 -8 19 -8 11 0 23 -4 26 -10 3 -5 12
-10 19 -10 8 0 34 -9 60 -20 25 -12 48 -19 52 -18 3 2 10 -5 15 -15 6 -9 14
-15 20 -12 5 4 9 1 9 -5 0 -6 5 -8 10 -5 6 3 10 1 10 -6 0 -7 3 -9 7 -6 3 4
21 -4 38 -18 18 -13 35 -21 39 -18 3 4 6 2 6 -4 0 -6 14 -16 30 -23 17 -7 30
-16 30 -21 0 -5 5 -9 11 -9 9 0 54 -34 163 -123 80 -65 234 -224 301 -311 17
-21 35 -44 41 -50 5 -6 34 -47 64 -91 29 -44 57 -81 62 -83 4 -2 8 -8 8 -13 0
-5 19 -39 42 -76 75 -124 247 -477 263 -543 9 -36 72 -200 79 -207 5 -4 5 2 2
14 -4 12 -9 39 -11 60 -4 48 -14 111 -22 143 -3 14 -6 28 -5 33 1 4 -3 26 -8
50 -9 35 -31 129 -44 187 -20 87 -96 323 -138 430 -43 109 -63 152 -125 275
-31 61 -61 120 -67 132 -6 13 -14 23 -18 23 -5 0 -8 5 -8 11 0 13 -90 152
-102 157 -4 2 -8 8 -8 13 0 9 -17 33 -103 142 -57 73 -186 207 -262 272 -33
28 -66 57 -75 65 -22 22 -207 143 -260 171 -25 13 -48 29 -52 34 -4 6 -8 6 -8
1 0 -5 -6 -4 -12 2 -43 34 -286 116 -408 137 -19 3 -42 8 -50 10 -8 2 -55 7
-103 10 -49 2 -92 7 -96 10 -5 2 -10 2 -13 0z"/>
<path d="M2093 3796 l2 -101 447 -1 447 -1 3 71 c2 39 2 85 0 102 l-3 31 -449
0 -449 0 2 -101z"/>
<path d="M2120 3498 c0 -4 -7 -5 -15 -2 -12 5 -14 -14 -14 -120 1 -69 4 -126
7 -127 30 -5 876 -3 884 2 10 6 14 237 4 246 -7 8 -202 6 -215 -1 -6 -4 -11
-4 -11 1 0 9 -234 8 -250 -2 -5 -3 -10 -3 -10 2 0 10 -52 9 -68 -1 -7 -4 -12
-4 -12 1 0 10 -52 9 -68 -1 -7 -4 -12 -4 -12 1 0 10 -52 9 -68 -1 -7 -4 -12
-4 -12 1 0 4 -31 8 -70 8 -38 0 -70 -3 -70 -7z"/>
<path d="M3143 3502 c-18 -2 -33 -6 -34 -10 -4 -31 -3 -242 1 -243 14 -3 877
-4 886 -2 7 3 10 45 9 123 -1 66 -2 123 -3 128 -2 9 -96 7 -111 -3 -6 -3 -11
-3 -11 2 0 9 -201 9 -225 -1 -8 -3 -15 -2 -15 2 0 8 -203 7 -225 -2 -8 -3 -15
-2 -15 2 0 7 -194 10 -257 4z"/>
<path d="M1081 3040 c-6 -11 -7 -321 -2 -350 1 -3 204 -6 451 -6 l450 0 -2
185 -3 185 -443 1 c-385 0 -445 -2 -451 -15z"/>
<path d="M2100 3050 c-5 -3 -7 -86 -7 -185 l2 -180 448 -1 447 0 1 85 c1 237
1 273 -5 279 -8 7 -874 9 -886 2z"/>
<path d="M3111 3040 c-5 -12 -7 -298 -2 -346 1 -7 140 -10 449 -10 l447 1 1
183 c1 178 1 182 -20 183 -12 1 -212 2 -444 3 -368 1 -425 -1 -431 -14z"/>
<path d="M1082 2522 c-13 -27 -9 -522 5 -530 8 -5 821 -8 881 -3 9 1 12 62 12
271 0 250 -1 270 -17 271 -104 4 -173 3 -173 -3 0 -4 -6 -5 -14 -2 -22 9 -146
11 -146 2 0 -4 -6 -5 -14 -2 -22 9 -146 11 -146 2 0 -4 -6 -5 -14 -2 -22 9
-146 11 -146 2 0 -4 -6 -5 -14 -2 -22 8 -146 11 -146 3 0 -4 -14 -4 -30 1 -24
7 -32 5 -38 -8z"/>
<path d="M2110 2527 c0 -4 -4 -6 -9 -2 -6 3 -10 -97 -10 -265 0 -148 3 -270 7
-271 31 -5 876 -3 884 2 10 6 14 527 4 537 -9 8 -556 8 -556 0 0 -4 -6 -5 -14
-2 -22 9 -146 11 -146 2 0 -4 -6 -5 -14 -2 -24 9 -146 10 -146 1z"/>
<path d="M3112 2525 c-10 -17 -8 -526 3 -533 12 -7 884 -9 887 -2 7 24 2 532
-6 537 -17 11 -877 9 -884 -2z"/>
<path d="M875 2522 c-3 -3 -27 -7 -53 -9 -77 -6 -82 -7 -82 -16 0 -4 -3 -6 -7
-4 -5 3 -19 0 -33 -6 -14 -5 -31 -11 -38 -13 -18 -3 -156 -74 -162 -83 -3 -4
-15 -14 -28 -23 -74 -50 -232 -232 -232 -267 0 -6 -4 -11 -10 -11 -5 0 -10 -6
-10 -14 0 -7 -7 -19 -15 -26 -8 -7 -12 -16 -9 -21 3 -5 2 -9 -3 -9 -4 0 -14
-15 -22 -32 -8 -18 -22 -51 -31 -73 -21 -46 -67 -182 -74 -217 -10 -46 -15
-70 -20 -86 -3 -9 -8 -37 -11 -62 -3 -25 -8 -58 -11 -75 -14 -85 -19 -294 -9
-380 2 -22 7 -60 9 -85 3 -25 8 -56 11 -70 3 -14 8 -41 11 -60 18 -101 85
-286 136 -373 15 -26 28 -52 28 -57 0 -4 3 -10 8 -12 4 -1 26 -28 48 -59 56
-74 153 -169 173 -169 5 0 11 -6 14 -12 6 -18 149 -92 223 -117 64 -21 90 -27
164 -36 25 -3 55 -7 68 -10 13 -2 28 -2 35 1 19 7 13 2469 -5 2480 -13 8 -57
12 -63 6z"/>
<path d="M4195 2521 c-21 -6 -21 -11 -24 -976 -2 -533 -5 -1087 -5 -1230 -1
-143 0 -265 2 -271 2 -9 67 -13 67 -4 0 1 20 3 45 5 25 1 65 8 90 15 25 7 52
14 60 16 44 11 90 30 90 37 0 5 4 6 9 2 5 -3 17 3 27 12 10 10 19 16 22 14 9
-9 136 84 195 142 70 70 117 133 169 227 36 64 96 206 101 238 1 9 6 23 10 29
5 7 6 13 3 13 -3 0 1 18 9 40 8 22 14 43 14 45 -1 3 3 24 7 48 33 190 37 432
9 582 -3 17 -7 44 -10 60 -3 17 -8 41 -11 55 -3 14 -7 35 -9 48 -14 94 -147
408 -194 459 -12 12 -21 25 -21 29 0 11 -81 107 -129 152 -85 81 -257 182
-310 182 -12 0 -21 3 -21 8 0 4 -10 8 -22 9 -100 9 -134 13 -143 16 -5 2 -19
1 -30 -2z"/>
<path d="M1082 1825 c-11 -17 -8 -676 3 -685 16 -13 885 -9 886 4 5 33 3 686
-1 687 -3 1 -202 2 -443 3 -283 1 -441 -3 -445 -9z"/>
<path d="M2099 1830 c-4 -3 -8 -159 -8 -347 0 -312 2 -342 17 -347 9 -2 212
-4 450 -4 l432 1 0 66 c1 90 1 458 1 556 l-1 80 -441 0 c-242 0 -445 -2 -450
-5z"/>
<path d="M3109 1825 c-3 -32 -3 -654 -1 -671 l4 -21 446 1 447 1 0 350 0 349
-448 1 c-291 0 -447 -3 -448 -10z"/>
<path d="M1085 960 c-2 -3 -4 -218 -4 -478 l0 -472 22 -1 c12 0 210 -1 441 -1
347 -1 420 2 426 13 4 8 7 223 6 479 l-1 465 -443 1 c-244 0 -445 -3 -447 -6z"/>
<path d="M2102 956 c-4 -6 -7 -221 -7 -478 l0 -468 25 -1 c139 -3 862 0 866 4
8 7 7 938 -1 945 -12 12 -875 9 -883 -2z"/>
<path d="M3113 956 c-9 -13 -10 -925 -2 -938 9 -14 879 -15 887 0 4 5 7 221 7
479 l-1 468 -443 1 c-290 0 -444 -3 -448 -10z"/>
</g>
</svg>
